<svg id="SvgjsSvg1030" width="24" height="24" xmlns="http://www.w3.org/2000/svg" version="1.1" xmlnsXlink="http://www.w3.org/1999/xlink" ><defs id="SvgjsDefs1031"></defs><g id="SvgjsG1032"><svg xmlns="http://www.w3.org/2000/svg" width="24" height="24" viewBox="0 0 96 96"><switch><g fill="#ffffff" class="color000 svgShape"><path d="M53.657 48l25.171-25.172a4 4 0 1 0-5.656-5.656L48 42.343 22.829 17.172a4 4 0 0 0-5.657 5.656L42.344 48 17.172 73.172a4 4 0 1 0 5.657 5.656L48 53.657l25.172 25.171C73.953 79.609 74.977 80 76 80s2.048-.391 2.828-1.172a4 4 0 0 0 0-5.656L53.657 48z" fill="#ffffff" class="color000 svgShape"></path></g></switch></svg></g></svg>